<svg width="80" height="80"
  xmlns="http://www.w3.org/2000/svg" preserveAspectRatio="xMidYMid">
  <style type="text/css">text { text-anchor: middle; font-size: 102px; opacity: 0 }</style>
  <title>Logo SiGAÊ (Mini)</title>
  <desc>Feito por Pedro Cerqueira Mota
		https://github.com/pedrocmota/</desc>
  <g>
    <g stroke="null" id="svg_10">
      <rect stroke="null" fill="none" id="canvas_background" height="80.11321" width="79.73583" y="-0.13573" x="0.29032"/>
    </g>
    <g stroke="null" id="svg_4" transform="translate(140 100) scale(0.91 0.91)" class="path">
      <path stroke="null" id="svg_5" stroke-width="none" fill=" rgb(78, 95, 120)" d="m-149.91913,-32.57655l5.29309,-8.82182l0,0q3.96982,3.30818 8.93209,5.40337l0,0l0,0q4.96227,2.09518 11.57864,2.09518l0,0l0,0q7.93964,0 12.5711,-3.30818l0,0l0,0q4.63146,-3.30818 4.63146,-8.93209l0,0l0,0q0,-2.31573 -0.66164,-4.30064l0,0l0,0q-0.66164,-1.98491 -2.59141,-3.80441l0,0l0,0q-1.92977,-1.8195 -5.40337,-3.639l0,0l0,0q-3.47359,-1.8195 -8.98723,-3.91468l0,0l0,0q-5.95473,-2.31573 -10.08996,-4.57632l0,0l0,0q-4.13523,-2.26059 -6.6715,-4.96227l0,0l0,0q-2.53627,-2.70168 -3.639,-5.95473l0,0l0,0q-1.10273,-3.25305 -1.10273,-7.44341l0,0l0,0q0,-4.08009 1.70923,-7.71909l0,0l0,0q1.70923,-3.639 5.07255,-6.34068l0,0l0,0q3.36332,-2.70168 8.27046,-4.2455l0,0l0,0q4.90714,-1.54382 11.19269,-1.54382l0,0l0,0q6.83691,0 12.24028,1.37841l0,0l0,0q5.40337,1.37841 10.69646,3.91468l0,0l-3.85955,8.93209l0,0q-3.74927,-2.20546 -8.76668,-3.69414l0,0l0,0q-5.01741,-1.48868 -10.53105,-1.48868l0,0l0,0q-7.278,0 -11.46837,2.81196l0,0l0,0q-4.19037,2.81196 -4.19037,7.44341l0,0l0,0q0,2.20546 0.6065,3.91468l0,0l0,0q0.6065,1.70923 2.426,3.30818l0,0l0,0q1.8195,1.59896 5.07255,3.25305l0,0l0,0q3.25305,1.65409 8.65641,3.639l0,0l0,0q6.39582,2.426 10.80673,4.96227l0,0l0,0q4.41091,2.53627 7.05746,5.40337l0,0l0,0q2.64655,2.86709 3.80441,6.17527l0,0l0,0q1.15786,3.30818 1.15786,7.278l0,0l0,0q0,5.40337 -2.09518,9.59373l0,0l0,0q-2.09518,4.19037 -5.78932,7.11259l0,0l0,0q-3.69414,2.92223 -8.87696,4.41091l0,0l0,0q-5.18282,1.48868 -11.24782,1.48868l0,0l0,0q-8.04991,0 -14.66628,-2.15032l0,0l0,0q-6.61637,-2.15032 -11.13755,-5.67905l0,0"/>
    </g>
    <g stroke="null" id="svg_6" transform="translate(140 100) scale(0.91 0.91)" class="path">
      <path stroke="null" id="svg_7" stroke-width="none" fill=" rgb(92, 103, 188)" d="m-71.84601,-83.41229l0,57.34184l-9.92455,0l0,-57.34184l9.92455,0"/>
    </g>
    <g stroke="null" id="svg_8" transform="translate(140 100) scale(0.91 0.91)" class="path">
      <path stroke="null" id="svg_9" stroke-width="none" fill=" rgb(41, 170, 149)" d="m-76.80828,-93.22657l0,0l0,0q-2.86709,0 -4.90714,-2.04005l0,0l0,0q-2.04005,-2.04005 -2.04005,-4.90714l0,0l0,0q0,-3.19791 1.87464,-5.07255l0,0l0,0q1.87464,-1.87464 5.07255,-1.87464l0,0l0,0q2.86709,0 4.90714,2.04005l0,0l0,0q2.04005,2.04005 2.04005,4.90714l0,0l0,0q0,3.19791 -1.87464,5.07255l0,0l0,0q-1.87464,1.87464 -5.07255,1.87464"/>
    </g>
  </g>
</svg>