<svg width="280" height="100"
  xmlns="http://www.w3.org/2000/svg" preserveAspectRatio="xMidYMid">
  <style type="text/css">text { text-anchor: middle; font-size: 102px; opacity: 0 }</style>
  <title>Logo alternativo SiGAÊ</title>
  <desc>
		Feito por Pedro Cerqueira Mota
		https://github.com/pedrocmota/
  </desc>
  <g>
    <rect x="-1" y="-1" width="282" height="102" id="canvas_background" fill="none"/>
  </g>
  <g>
    <title>Layer 1</title>
    <g id="svg_1">
      <g id="svg_2">
        <g id="svg_3">
          <g class="path" transform="translate(140,100) scale(0.9100000262260437) " id="svg_4">
            <path d="m-105.600008,-24.145052l3.84,-6.4l0,0q2.88,2.4 6.48,3.92l0,0l0,0q3.6,1.52 8.4,1.52l0,0l0,0q5.76,0 9.12,-2.4l0,0l0,0q3.36,-2.4 3.36,-6.48l0,0l0,0q0,-1.68 -0.48,-3.12l0,0l0,0q-0.48,-1.44 -1.88,-2.76l0,0l0,0q-1.4,-1.32 -3.92,-2.64l0,0l0,0q-2.52,-1.32 -6.52,-2.84l0,0l0,0q-4.32,-1.68 -7.32,-3.32l0,0l0,0q-3,-1.64 -4.84,-3.6l0,0l0,0q-1.84,-1.96 -2.64,-4.32l0,0l0,0q-0.8,-2.36 -0.8,-5.4l0,0l0,0q0,-2.96 1.24,-5.6l0,0l0,0q1.24,-2.64 3.68,-4.6l0,0l0,0q2.44,-1.96 6,-3.08l0,0l0,0q3.56,-1.12 8.12,-1.12l0,0l0,0q4.96,0 8.88,1l0,0l0,0q3.92,1 7.76,2.84l0,0l-2.8,6.48l0,0q-2.72,-1.6 -6.36,-2.68l0,0l0,0q-3.64,-1.08 -7.64,-1.08l0,0l0,0q-5.28,0 -8.32,2.04l0,0l0,0q-3.04,2.04 -3.04,5.4l0,0l0,0q0,1.6 0.44,2.84l0,0l0,0q0.44,1.24 1.76,2.4l0,0l0,0q1.32,1.16 3.68,2.36l0,0l0,0q2.36,1.2 6.28,2.64l0,0l0,0q4.64,1.76 7.84,3.6l0,0l0,0q3.2,1.84 5.12,3.92l0,0l0,0q1.92,2.08 2.76,4.48l0,0l0,0q0.84,2.4 0.84,5.28l0,0l0,0q0,3.92 -1.52,6.96l0,0l0,0q-1.52,3.04 -4.2,5.16l0,0l0,0q-2.68,2.12 -6.44,3.2l0,0l0,0q-3.76,1.08 -8.16,1.08l0,0l0,0q-5.84,0 -10.64,-1.56l0,0l0,0q-4.8,-1.56 -8.08,-4.12l0,0" fill="rgb(154, 174, 204)" stroke-width="none" id="svg_5"/>
          </g>
          <g class="path" transform="translate(140,100) scale(0.9100000262260437) " id="svg_6">
            <path d="m-48.960008,-61.025052l0,41.6l-7.2,0l0,-41.6l7.2,0" fill="rgb(92, 103, 188)" stroke-width="none" id="svg_7"/>
          </g>
          <g class="path" transform="translate(140,100) scale(0.9100000262260437) " id="svg_8">
            <path d="m-52.560008,-68.145052l0,0l0,0q-2.08,0 -3.56,-1.48l0,0l0,0q-1.48,-1.48 -1.48,-3.56l0,0l0,0q0,-2.32 1.36,-3.68l0,0l0,0q1.36,-1.36 3.68,-1.36l0,0l0,0q2.08,0 3.56,1.48l0,0l0,0q1.48,1.48 1.48,3.56l0,0l0,0q0,2.32 -1.36,3.68l0,0l0,0q-1.36,1.36 -3.68,1.36" fill=" rgb(41, 170, 149)" stroke-width="none" id="svg_9"/>
          </g>
          <g class="path" transform="translate(140,100) scale(0.9100000262260437) " id="svg_10">
            <path d="m-12.640008,-43.105052l0,-6l18.8,0l0,29.68l-6.72,0l0,-5.6l0,0q-2.8,2.48 -6.8,4.52l0,0l0,0q-4,2.04 -8.88,2.04l0,0l0,0q-4.88,0 -8.96,-1.92l0,0l0,0q-4.08,-1.92 -7.04,-5.52l0,0l0,0q-2.96,-3.6 -4.64,-8.68l0,0l0,0q-1.68,-5.08 -1.68,-11.4l0,0l0,0q0,-6.72 1.72,-12.28l0,0l0,0q1.72,-5.56 5,-9.6l0,0l0,0q3.28,-4.04 8.04,-6.28l0,0l0,0q4.76,-2.24 10.84,-2.24l0,0l0,0q5.28,0 9.32,1.28l0,0l0,0q4.04,1.28 7.64,3.28l0,0l-2.8,6.32l0,0q-3.36,-1.84 -6.8,-3.04l0,0l0,0q-3.44,-1.2 -7.76,-1.2l0,0l0,0q-3.76,0 -6.96,1.52l0,0l0,0q-3.2,1.52 -5.52,4.48l0,0l0,0q-2.32,2.96 -3.64,7.32l0,0l0,0q-1.32,4.36 -1.32,9.96l0,0l0,0q0,5.04 1.2,9l0,0l0,0q1.2,3.96 3.36,6.72l0,0l0,0q2.16,2.76 5.16,4.2l0,0l0,0q3,1.44 6.6,1.44l0,0l0,0q2.24,0 4.24,-0.52l0,0l0,0q2,-0.52 3.68,-1.36l0,0l0,0q1.68,-0.84 3.08,-1.84l0,0l0,0q1.4,-1 2.44,-2.04l0,0l0,-12.24l-11.6,0" fill="rgb(154, 174, 204)" stroke-width="none" id="svg_11"/>
          </g>
          <g class="path" transform="translate(140,100) scale(0.9100000262260437) " id="svg_12">
            <path d="m18.639992,-18.785052l-6.48,-2.64l21.92,-54l8.32,0l21.6,54l-6.96,2.8l-6.24,-16l-25.92,0l-6.24,15.84zm19.2,-49.12l-10.56,26.88l21.04,0l-10.48,-26.88" fill="rgb(154, 174, 204)" stroke-width="none" id="svg_13"/>
          </g>
          <g class="path" transform="translate(140,100) scale(0.9100000262260437) " id="svg_14">
            <path d="m71.999992,-19.425052l0,-56l33.6,0l0,6.56l-26,0l0,17.04l22.4,0l0,6.4l-22.4,0l0,19.44l26,0l0,6.56l-33.6,0" fill="rgb(154, 174, 204)" stroke-width="none" id="svg_15"/>
          </g>
          <g class="path" transform="translate(140,100) scale(0.9100000262260437) " id="svg_16">
            <path d="m89.519992,-86.385052l-10.88,7.6l-3.44,-6.24l11.76,-6.4l5.12,0l11.68,6.4l-3.44,6.24l-10.8,-7.6" fill=" rgb(92, 103, 188)" stroke-width="none" id="svg_17"/>
          </g>
        </g>
      </g>
    </g>
  </g>
</svg>